:version 1.10
:name ASF
:units
  mass 1
  length 1
  angle deg
:documentation
  ASF file generated by Kaydara
:root
  axis xyz
  order  tx ty tz rx ry rz
  position 0 0 0
  orientation 0 0 0
:bonedata
  begin
    id 1
    name RightUpLegDummy
    direction -0.718183 -0.695806 0.00816078
    length 4.904
    axis 0 0 0 xyz
  end
  begin
    id 2
    name RightUpLeg
    direction 3.53373e-006 -0.995788 0.0916898
    length 17.4976
    axis -3.49089 -0.000906625 0.000286804 xyz
    dof rx ry rz
  end
  begin
    id 3
    name RightLeg
    direction 0.00371092 -0.995096 -0.0988419
    length 16.5821
    axis 3.68512 0.0193738 -0.131023 xyz
    dof rx ry rz
  end
  begin
    id 4
    name RightFoot
    direction 0.00079151 -0.46099 0.887405
    length 3.77069
    axis 4.81691e-005 -0.120479 -0.188788 xyz
    dof rx ry rz
  end
  begin
    id 5
    name RightToes
    direction 0.00124746 -0.014064 0.9999
    length 3.85082
    axis 0.000481921 0.542163 -0.142578 xyz
    dof rx ry rz
  end
  begin
    id 6
    name SpineDummy
    direction 8.3039e-015 1 4.57515e-016
    length 4.6813
    axis 0 0 0 xyz
  end
  begin
    id 7
    name Spine
    direction -3.15643e-008 0.999988 0.00495137
    length 10.1015
    axis -0.001389 0.000121418 2.40972e-006 xyz
    dof rx ry rz
  end
  begin
    id 8
    name Spine1
    direction 0 0 0
    length 0
    axis -0.001389 0.000121451 1.30017e-006 xyz
    dof rx ry rz
  end
  begin
    id 9
    name HEadDummy
    direction -1.99912e-008 0.999999 0.00127422
    length 3.43865
    axis -0.001389 0.000121451 1.30017e-006 xyz
  end
  begin
    id 10
    name HEad
    direction -0.0222688 0.980941 0.193023
    length 5.12695
    axis -0.001389 0.000121451 1.30017e-006 xyz
    dof rx ry rz
  end
  begin
    id 11
    name LeftShoulder1Dummy
    direction 0.998891 -0.0402509 -0.0244456
    length 3.5433
    axis -0.001389 0.000121451 1.30017e-006 xyz
  end
  begin
    id 12
    name LeftShoulder1
    direction 0.99951 -0.000327763 0.0313091
    length 4.05031
    axis -0.001389 0.000121451 1.30017e-006 xyz
    dof rx ry rz
  end
  begin
    id 13
    name LeftArm
    direction 0.998561 -0.00100056 -0.0536182
    length 10.3537
    axis -23.1894 0.134784 0.967509 xyz
    dof rx ry rz
  end
  begin
    id 14
    name LeftForeArm
    direction 0.998903 0.00866432 0.046012
    length 8.70632
    axis -9.91835 -0.06569 -0.177794 xyz
    dof rx ry rz
  end
  begin
    id 15
    name LeftHand
    direction 0.992938 -0.0411637 0.11126
    length 5.32135
    axis -0.00960232 -0.00340091 0.185173 xyz
    dof rx ry rz
  end
  begin
    id 16
    name RightShoulderDummy
    direction -0.998891 -0.0402509 -0.0244414
    length 3.5433
    axis -0.001389 0.000121451 1.30017e-006 xyz
  end
  begin
    id 17
    name RightShoulder
    direction -0.99951 -0.000327807 0.0313133
    length 4.05031
    axis 0.215806 0.000203643 -0.0068026 xyz
    dof rx ry rz
  end
  begin
    id 18
    name RightArm
    direction -0.998573 -0.000999564 -0.053403
    length 10.3947
    axis -23.2009 -0.134239 -0.964101 xyz
    dof rx ry rz
  end
  begin
    id 19
    name RightForeArm
    direction -0.998898 0.00868028 0.0461306
    length 8.68355
    axis -9.92322 0.0658061 0.178868 xyz
    dof rx ry rz
  end
  begin
    id 20
    name RightHand
    direction -0.992843 -0.0414603 0.112003
    length 5.28593
    axis -0.00960638 0.00330671 -0.185228 xyz
    dof rx ry rz
  end
  begin
    id 21
    name LeftUpLegDummy
    direction 0.718183 -0.695806 0.00816078
    length 4.904
    axis 0 0 0 xyz
  end
  begin
    id 22
    name LeftUpLeg
    direction -6.81752e-006 -0.995793 0.0916337
    length 17.4976
    axis -3.48766 0.00143442 -0.000524262 xyz
    dof rx ry rz
  end
  begin
    id 23
    name LeftLeg
    direction -0.00601358 -0.995091 -0.0987824
    length 16.5821
    axis 3.68178 -0.00654042 -0.000285133 xyz
    dof rx ry rz
  end
  begin
    id 24
    name LeftFoot
    direction -0.00417578 -0.460984 0.887399
    length 3.77069
    axis 1.87233e-006 4.66016e-005 -8.6538e-006 xyz
    dof rx ry rz
  end
  begin
    id 25
    name LeftToes
    direction 0.00818058 -0.00485161 0.999955
    length 3.85048
    axis 1.06247e-005 4.65869e-005 -8.65513e-006 xyz
    dof rx ry rz
  end
:hierarchy
  begin
    root RightUpLegDummy SpineDummy LeftUpLegDummy
    RightUpLegDummy RightUpLeg
    RightUpLeg RightLeg
    RightLeg RightFoot
    RightFoot RightToes
    SpineDummy Spine
    Spine Spine1
    Spine1 HEadDummy LeftShoulder1Dummy RightShoulderDummy
    HEadDummy HEad
    LeftShoulder1Dummy LeftShoulder1
    LeftShoulder1 LeftArm
    LeftArm LeftForeArm
    LeftForeArm LeftHand
    RightShoulderDummy RightShoulder
    RightShoulder RightArm
    RightArm RightForeArm
    RightForeArm RightHand
    LeftUpLegDummy LeftUpLeg
    LeftUpLeg LeftLeg
    LeftLeg LeftFoot
    LeftFoot LeftToes
  end

:SAMPLES-PER-SECOND 30
:FRAME-RANGE 1-668
:FULLY-SPECIFIED
:DEGREES
1
root  68.6679 40.2269 -54.3101 -2.48646 -54.5993 3.74513
RightUpLeg  3.75215 -4.96033 -1.81781
RightLeg  2.64853 -8.83826 -0.160961
RightFoot  -7.34342 -0.132422 2.59926
RightToes  -1.33073e-015 0 -3.6325e-017
Spine  3.91359 -0.294493 4.1148
Spine1  0.571071 0.122598 -1.27599
HEad  -1.14974 15.1347 -7.45516
LeftShoulder1  1.4855 -0.196771 -34.3582
LeftArm  23.6406 6.72815 -32.3929
LeftForeArm  0.442771 -12.7094 -14.025
LeftHand  0.415836 -3.1518 -5.46588
RightShoulder  8.39357 10.4882 52.4952
RightArm  24.3539 2.02841 13.6753
RightForeArm  10.8773 4.33152 17.5032
RightHand  0.524227 5.17775 5.51079
LeftUpLeg  -4.323 5.01007 2.23065
LeftLeg  -1.46451 1.00885 -1.49889
LeftFoot  5.13905 0.830502 -6.01544
LeftToes  -2.73175e-012 1.00346e-010 -4.28452e-011
2
root  68.6494 40.2285 -54.278 -2.52976 -54.7308 3.80907
RightUpLeg  3.77792 -4.97037 -1.87415
RightLeg  2.65726 -8.68367 -0.192218
RightFoot  -7.37046 -0.134812 2.63635
RightToes  -1.33073e-015 0 -3.6325e-017
Spine  3.81371 -0.293312 4.08281
Spine1  0.679493 0.131471 -1.32426
HEad  -1.35324 15.2265 -7.70478
LeftShoulder1  1.4855 -0.189975 -34.3582
LeftArm  23.4446 6.76365 -32.3801
LeftForeArm  0.587362 -12.6938 -14.0184
LeftHand  0.415335 -3.18659 -5.45051
RightShoulder  8.42734 10.5119 52.6133
RightArm  23.9039 2.0065 13.5648
RightForeArm  11.1176 4.18616 17.5131
RightHand  0.52386 5.20171 5.50725
LeftUpLeg  -4.25236 5.00954 2.19242
LeftLeg  -1.47692 1.12707 -1.50675
LeftFoot  5.08186 0.828528 -5.98459
LeftToes  -2.73175e-012 1.00346e-010 -4.28452e-011
3
root  68.629 40.2308 -54.248 -2.53324 -54.8728 3.84958
RightUpLeg  3.80004 -4.95552 -1.90272
RightLeg  2.61837 -8.55946 -0.217937
RightFoot  -7.37032 -0.134991 2.63912
RightToes  -1.33073e-015 0 -3.6325e-017
Spine  3.65941 -0.277418 4.03558
Spine1  0.852002 0.14659 -1.33745
HEad  -1.57082 15.3659 -7.86814
LeftShoulder1  1.4855 -0.170681 -34.3582
LeftArm  23.3439 6.75541 -32.3946
LeftForeArm  0.614489 -12.6898 -14.0147
LeftHand  0.414883 -3.1791 -5.42215
RightShoulder  8.42966 10.499 52.6742
RightArm  23.6999 2.02886 13.5331
RightForeArm  11.3338 4.07449 17.5242
RightHand  0.523172 5.18584 5.46032
LeftUpLeg  -4.21069 5.02555 2.17508
LeftLeg  -1.47131 1.24201 -1.51805
LeftFoot  5.01477 0.827398 -5.96693
LeftToes  -2.73175e-012 1.00346e-010 -4.28452e-011
4
root  68.6061 40.2342 -54.2165 -2.57121 -54.9784 3.92064
RightUpLeg  3.86314 -4.97178 -1.96503
RightLeg  2.53808 -8.44366 -0.223546
RightFoot  -7.36799 -0.138385 2.69179
RightToes  -1.33073e-015 0 -3.6325e-017
Spine  3.49619 -0.270472 3.98735
Spine1  1.02449 0.155461 -1.36562
HEad  -1.73909 15.4213 -8.02017
LeftShoulder1  1.4901 -0.180991 -34.3698
LeftArm  23.7033 6.81006 -32.3495
LeftForeArm  0.212497 -12.9098 -13.8867
LeftHand  0.415616 -3.11713 -5.44087
RightShoulder  8.39873 10.44 52.7025
RightArm  23.96 2.119 13.5291
RightForeArm  11.1088 4.0523 17.5701
RightHand  0.522802 5.16637 5.42768
LeftUpLeg  -4.13246 5.02128 2.1305
LeftLeg  -1.51739 1.38788 -1.52135
LeftFoot  4.8914 0.838388 -6.08448
LeftToes  -2.73175e-012 1.00346e-010 -4.28452e-011
5
root  68.5834 40.2375 -54.1867 -2.58879 -55.0849 3.96275
RightUpLeg  3.92775 -4.95024 -1.98807
RightLeg  2.45576 -8.34843 -0.25966
RightFoot  -7.35735 -0.140496 2.72454
RightToes  -1.33073e-015 0 -3.6325e-017
Spine  3.33454 -0.271834 3.9779
Spine1  1.19705 0.164206 -1.43012
HEad  -1.87528 15.4876 -8.13116
LeftShoulder1  1.48344 -0.163214 -34.3838
LeftArm  23.2751 6.69718 -32.3104
LeftForeArm  0.634836 -12.6608 -14.0309
LeftHand  0.414572 -3.15174 -5.39424
RightShoulder  8.47151 10.5284 52.8195
RightArm  23.7154 2.0454 13.4239
RightForeArm  11.2089 3.95086 17.5814
RightHand  0.53077 5.12976 5.53643
LeftUpLeg  -4.04411 5.03281 2.1065
LeftLeg  -1.58781 1.45693 -1.53361
LeftFoot  4.92628 0.820506 -5.94789
LeftToes  -2.73175e-012 1.00346e-010 -4.28452e-011
